<svg id="svg" version="1.1" xmlns="http://www.w3.org/2000/svg" xmlns:xlink="http://www.w3.org/1999/xlink" width="400" height="118.0722891566265" viewBox="0, 0, 400,118.0722891566265"><g id="svgg"><path id="path0" d="M33.626 18.129 C 10.795 28.849,0.003 33.997,0.004 34.167 C 0.005 34.360,61.609 63.479,66.750 65.716 L 67.439 66.016 101.175 50.183 C 119.730 41.475,134.930 34.290,134.954 34.217 C 134.986 34.114,68.530 2.800,67.485 2.426 C 67.356 2.379,52.119 9.446,33.626 18.129 M90.708 24.998 C 101.319 29.979,110.000 34.104,110.000 34.164 C 110.000 34.225,100.397 38.782,88.660 44.291 L 67.319 54.308 45.993 44.298 C 34.264 38.792,24.669 34.241,24.671 34.185 C 24.674 34.129,34.289 29.576,46.039 24.066 L 67.401 14.049 69.409 14.995 C 70.513 15.516,80.098 20.017,90.708 24.998 M0.040 52.867 L 0.083 58.715 33.649 74.274 C 52.110 82.832,67.295 89.833,67.394 89.833 C 67.492 89.833,82.744 82.802,101.287 74.208 L 135.000 58.583 135.000 52.792 C 135.000 48.935,134.943 47.000,134.829 47.000 C 134.734 47.000,119.506 54.006,100.988 62.569 L 67.319 78.138 34.701 63.053 C 16.761 54.756,1.614 47.755,1.040 47.494 L -0.004 47.019 0.040 52.867 M0.040 76.197 L 0.083 82.072 33.746 97.679 L 67.408 113.286 69.246 112.425 C 70.256 111.952,85.465 104.900,103.042 96.754 L 135.000 81.944 135.000 76.119 C 135.000 70.652,134.982 70.299,134.708 70.377 C 134.548 70.422,119.319 77.444,100.867 85.981 L 67.318 101.504 34.117 86.149 C 15.857 77.704,0.709 70.688,0.456 70.559 L -0.004 70.323 0.040 76.197 " stroke="none" fill="#f7f7f7" fill-rule="evenodd"></path><path id="path1" d="M302.043 38.375 L 302.096 76.750 302.476 78.411 C 304.808 88.625,315.149 93.502,326.417 89.702 L 328.250 89.083 328.294 82.610 C 328.318 79.050,328.280 76.163,328.210 76.195 C 328.140 76.226,327.708 76.449,327.250 76.691 C 323.916 78.446,320.100 77.816,318.815 75.298 C 317.978 73.657,318.006 75.000,318.003 36.208 L 318.000 0.000 309.995 0.000 L 301.990 0.000 302.043 38.375 M173.500 46.335 L 173.500 89.336 181.708 89.293 L 189.917 89.250 189.959 70.292 L 190.001 51.335 209.876 51.292 L 229.750 51.250 229.750 44.417 L 229.750 37.583 209.875 37.541 L 190.000 37.499 190.000 27.666 L 190.000 17.833 210.167 17.833 L 230.333 17.833 230.333 10.583 L 230.333 3.333 201.917 3.333 L 173.500 3.333 173.500 46.335 M362.423 25.691 C 335.839 29.098,324.177 61.534,342.642 80.711 C 360.470 99.225,392.720 91.139,398.985 66.583 C 404.796 43.808,385.907 22.681,362.423 25.691 M234.073 27.542 C 234.196 27.840,239.589 41.810,246.058 58.586 L 257.820 89.090 256.762 92.170 C 255.344 96.298,254.987 97.141,254.087 98.495 C 251.120 102.958,244.626 104.295,238.268 101.751 C 237.649 101.504,237.117 101.327,237.085 101.359 C 237.025 101.419,242.087 115.642,242.213 115.769 C 242.478 116.034,245.227 116.374,247.167 116.383 C 256.423 116.422,263.077 111.585,266.838 102.083 C 267.972 99.220,295.167 27.279,295.167 27.144 C 295.167 27.065,291.398 27.001,286.792 27.002 L 278.417 27.004 271.766 46.850 C 265.678 65.018,265.100 66.657,264.923 66.223 C 264.817 65.963,261.623 57.032,257.824 46.377 L 250.917 27.003 242.384 27.002 L 233.850 27.000 234.073 27.542 M369.578 39.587 C 382.625 41.862,388.804 58.184,380.871 69.421 C 370.667 83.874,349.327 76.333,349.261 58.250 C 349.219 46.489,358.782 37.704,369.578 39.587 " stroke="none" fill="#fafafa" fill-rule="evenodd"></path></g></svg>